<?xml version="1.0" encoding="UTF-8"?>
<svg id="Layer_1" xmlns="http://www.w3.org/2000/svg" version="1.1" viewBox="0 0 255 36">
  <!-- Generator: Adobe Illustrator 30.0.0, SVG Export Plug-In . SVG Version: 2.1.1 Build 123)  -->
  <defs>
    <style>
      .st0 {
        fill: #fff;
      }
    </style>
  </defs>
  <path class="st0" d="M0,35.25V.25h7.7v28h17.45v7H0ZM26.457,35.25L41.457,0h7.1l15,35.25h-8.05l-3.2-7.85h-14.8l-3.2,7.85h-7.85ZM40.257,20.6h9.3l-4.65-11.35-4.65,11.35ZM69.291,35.25v-13.8L55.841.25h9l8.35,14.05L81.691.25h8.75l-13.45,21.05v13.95h-7.7ZM91.732,35.25V.25h26.4v6.85h-18.75v7.1h16.5v6.85h-16.5v7.35h19v6.85h-26.65ZM121.729,35.25V.25h16c4.45,0,7.9,1.25,10.2,3.55,1.95,1.95,3,4.7,3,8v.1c0,5.65-3.05,9.2-7.5,10.85l8.55,12.5h-9l-7.5-11.2h-6.05v11.2h-7.7ZM129.429,17.25h7.8c3.75,0,5.9-2,5.9-4.95v-.1c0-3.3-2.3-5-6.05-5h-7.65v10.05ZM153.361,35.25L168.361,0h7.1l15,35.25h-8.05l-3.2-7.85h-14.8l-3.2,7.85h-7.85ZM167.161,20.6h9.3l-4.65-11.35-4.65,11.35ZM192.363,35.25V.25h16c4.45,0,7.9,1.25,10.2,3.55,1.95,1.95,3,4.7,3,8v.1c0,5.65-3.05,9.2-7.5,10.85l8.55,12.5h-9l-7.5-11.2h-6.05v11.2h-7.7ZM200.063,17.25h7.8c3.75,0,5.9-2,5.9-4.95v-.1c0-3.3-2.3-5-6.05-5h-7.65v10.05ZM233.577,35.25v-13.8L220.127.25h9l8.35,14.05L245.977.25h8.75l-13.45,21.05v13.95h-7.7Z"/>
</svg>